# Blender 4.1.1
# www.blender.org
mtllib mainframe system.mtl
o Cube.002
v -0.420280 -0.000090 -0.734367
v -0.420280 2.195637 -0.147295
v -0.420280 0.015969 -1.111266
v -0.420280 2.297112 -0.904569
v 0.422681 -0.000090 -0.734367
v 0.422681 2.195637 -0.147295
v 0.422681 0.015969 -1.111266
v 0.422681 2.297112 -0.904569
v -0.421159 2.963160 -0.511762
v -0.419386 2.953026 -0.888863
v 0.423560 2.956127 -0.884982
v 0.421787 2.966262 -0.507882
v -0.420280 1.546578 -0.320834
v -0.420280 1.622804 -0.965669
v 0.422681 1.622804 -0.965669
v 0.422681 1.546578 -0.320834
v -0.389767 2.170930 -0.165465
v 0.405010 2.170930 -0.165465
v -0.389767 1.558971 -0.329084
v 0.405010 1.558971 -0.329084
v -0.389767 1.544387 -0.274537
v -0.389767 2.156346 -0.110918
v 0.405010 2.156346 -0.110918
v 0.405010 1.544387 -0.274537
v -0.425009 0.221633 -0.673959
v 0.427497 0.221633 -0.673959
v -0.425009 1.529968 -0.316140
v 0.427497 1.529968 -0.316140
v 0.427497 1.518980 -0.275042
v 0.427497 0.210645 -0.632861
v -0.425009 0.210645 -0.632861
v -0.425009 1.518980 -0.275042
vn -1.0000 -0.0000 -0.0000
vn 1.0000 -0.0000 -0.0000
vn -0.0000 -0.2583 0.9661
vn -0.0000 -0.9991 -0.0426
vn -0.0036 0.9996 -0.0269
vn 1.0000 0.0004 0.0016
vn -1.0000 -0.0004 -0.0016
vn -0.0029 0.4264 0.9045
vn -0.0000 -0.9661 -0.2583
vn -0.0000 0.9661 0.2583
vn -0.0000 -0.2638 0.9646
vt 0.194696 0.741633
vt 0.175191 0.637799
vt 0.295139 0.630879
vt 0.296713 0.737338
vt 0.303902 0.737939
vt 0.305345 0.631478
vt 0.425301 0.638250
vt 0.405924 0.742109
vt 0.042559 0.729728
vt 0.042527 0.624078
vt 0.175084 0.624038
vt 0.175116 0.729688
vt 0.425301 0.992605
vt 0.425301 0.860048
vt 0.483992 0.860048
vt 0.483992 0.992605
vt 0.542220 0.860048
vt 0.542220 0.992604
vt 0.483992 0.992640
vt 0.483992 0.860084
vt 0.300464 0.527916
vt 0.359467 0.521777
vt 0.241454 0.521777
vt 0.300464 0.527844
vt 0.042637 0.521777
vt 0.175191 0.522367
vt 0.042635 0.981487
vt 0.175191 0.981447
vt 0.300464 0.991628
vt 0.359751 0.989597
vt 0.241175 0.989065
vt 0.300464 0.991022
vt 0.524912 0.860048
vt 0.425301 0.860048
vt 0.425301 0.735068
vt 0.524912 0.735068
vt 0.533768 0.834680
vt 0.533768 0.735068
vt 0.542647 0.735068
vt 0.542647 0.834680
vt 0.551526 0.735068
vt 0.551526 0.834680
vt 0.542647 0.834680
vt 0.542647 0.735068
vt 0.524912 0.735068
vt 0.533768 0.860048
vt 0.551058 0.860048
vt 0.551058 0.985028
vt 0.542220 0.985029
vt 0.542220 0.860049
vt 0.425301 0.521777
vt 0.559359 0.521777
vt 0.559359 0.735068
vt 0.572708 0.521777
vt 0.572708 0.655835
vt 0.566048 0.655836
vt 0.566048 0.521778
vt 0.551058 0.994106
vt 0.557730 0.860048
vt 0.557730 0.994106
vt 0.566048 0.521815
vt 0.566048 0.735108
vt 0.559359 0.735070
vt 0.559359 0.521777
vt 0.559359 0.948440
vt 0.559359 0.735146
vt 0.566048 0.735108
vt 0.566048 0.948401
s 0
usemtl Material
f 13/1/1 2/2/1 4/3/1 14/4/1
f 15/5/2 8/6/2 6/7/2 16/8/2
f 16/9/3 6/10/3 2/11/3 13/12/3
f 3/13/4 7/14/4 5/15/4 1/16/4
f 11/17/5 10/18/5 9/19/5 12/20/5
f 6/7/6 8/6/6 11/21/6 12/22/6
f 4/3/7 2/2/7 9/23/7 10/24/7
f 2/11/8 6/10/8 12/25/8 9/26/8
f 5/27/3 16/9/3 13/12/3 1/28/3
f 7/29/2 15/5/2 16/8/2 5/30/2
f 1/31/1 13/1/1 14/4/1 3/32/1
f 24/33/3 23/34/3 22/35/3 21/36/3
f 20/37/2 18/38/2 23/39/2 24/40/2
f 17/41/1 19/42/1 21/43/1 22/44/1
f 19/33/9 20/45/9 24/38/9 21/46/9
f 18/47/10 17/48/10 22/49/10 23/50/10
f 30/35/11 29/51/11 32/52/11 31/53/11
f 28/54/10 27/55/10 32/56/10 29/57/10
f 25/58/9 26/47/9 30/59/9 31/60/9
f 27/61/1 25/62/1 31/63/1 32/64/1
f 26/65/2 28/66/2 29/67/2 30/68/2
